<?xml version="1.0" encoding="utf-8" standalone="no"?>
<!DOCTYPE svg PUBLIC "-//W3C//DTD SVG 1.1//EN"
  "http://www.w3.org/Graphics/SVG/1.1/DTD/svg11.dtd">
<!-- Created with matplotlib (https://matplotlib.org/) -->
<svg height="149.808274pt" version="1.1" viewBox="0 0 321.688359 149.808274" width="321.688359pt" xmlns="http://www.w3.org/2000/svg" xmlns:xlink="http://www.w3.org/1999/xlink">
 <metadata>
  <rdf:RDF xmlns:cc="http://creativecommons.org/ns#" xmlns:dc="http://purl.org/dc/elements/1.1/" xmlns:rdf="http://www.w3.org/1999/02/22-rdf-syntax-ns#">
   <cc:Work>
    <dc:type rdf:resource="http://purl.org/dc/dcmitype/StillImage"/>
    <dc:date>2020-10-28T15:59:28.216577</dc:date>
    <dc:format>image/svg+xml</dc:format>
    <dc:creator>
     <cc:Agent>
      <dc:title>Matplotlib v3.3.2, https://matplotlib.org/</dc:title>
     </cc:Agent>
    </dc:creator>
   </cc:Work>
  </rdf:RDF>
 </metadata>
 <defs>
  <style type="text/css">*{stroke-linecap:butt;stroke-linejoin:round;}</style>
 </defs>
 <g id="figure_1">
  <g id="patch_1">
   <path d="M 0 149.808274 
L 321.688359 149.808274 
L 321.688359 0 
L 0 0 
z
" style="fill:none;"/>
  </g>
  <g id="axes_1">
   <g id="patch_2">
    <path d="M 31.124531 130.053118 
L 310.124531 130.053118 
L 310.124531 6.507663 
L 31.124531 6.507663 
z
" style="fill:none;"/>
   </g>
   <g id="matplotlib.axis_1">
    <g id="xtick_1">
     <g id="line2d_1">
      <defs>
       <path d="M 0 0 
L 0 3.5 
" id="mee75bf31d9" style="stroke:#000000;stroke-width:0.8;"/>
      </defs>
      <g>
       <use style="stroke:#000000;stroke-width:0.8;" x="31.124531" xlink:href="#mee75bf31d9" y="130.053118"/>
      </g>
     </g>
     <g id="text_1">
      <text style="font-family:Helvetica;font-size:13px;font-stretch:normal;font-style:normal;font-weight:normal;text-anchor:middle;" transform="rotate(-0, 31.124531, 146.378587)" x="31.124531" y="146.378587">0</text>
     </g>
    </g>
    <g id="xtick_2">
     <g id="line2d_2">
      <g>
       <use style="stroke:#000000;stroke-width:0.8;" x="86.924531" xlink:href="#mee75bf31d9" y="130.053118"/>
      </g>
     </g>
     <g id="text_2">
      <text style="font-family:Helvetica;font-size:13px;font-stretch:normal;font-style:normal;font-weight:normal;text-anchor:middle;" transform="rotate(-0, 86.924531, 146.378587)" x="86.924531" y="146.378587">20</text>
     </g>
    </g>
    <g id="xtick_3">
     <g id="line2d_3">
      <g>
       <use style="stroke:#000000;stroke-width:0.8;" x="142.724531" xlink:href="#mee75bf31d9" y="130.053118"/>
      </g>
     </g>
     <g id="text_3">
      <text style="font-family:Helvetica;font-size:13px;font-stretch:normal;font-style:normal;font-weight:normal;text-anchor:middle;" transform="rotate(-0, 142.724531, 146.378587)" x="142.724531" y="146.378587">40</text>
     </g>
    </g>
    <g id="xtick_4">
     <g id="line2d_4">
      <g>
       <use style="stroke:#000000;stroke-width:0.8;" x="198.524531" xlink:href="#mee75bf31d9" y="130.053118"/>
      </g>
     </g>
     <g id="text_4">
      <text style="font-family:Helvetica;font-size:13px;font-stretch:normal;font-style:normal;font-weight:normal;text-anchor:middle;" transform="rotate(-0, 198.524531, 146.378587)" x="198.524531" y="146.378587">60</text>
     </g>
    </g>
    <g id="xtick_5">
     <g id="line2d_5">
      <g>
       <use style="stroke:#000000;stroke-width:0.8;" x="254.324531" xlink:href="#mee75bf31d9" y="130.053118"/>
      </g>
     </g>
     <g id="text_5">
      <text style="font-family:Helvetica;font-size:13px;font-stretch:normal;font-style:normal;font-weight:normal;text-anchor:middle;" transform="rotate(-0, 254.324531, 146.378587)" x="254.324531" y="146.378587">80</text>
     </g>
    </g>
    <g id="xtick_6">
     <g id="line2d_6">
      <g>
       <use style="stroke:#000000;stroke-width:0.8;" x="310.124531" xlink:href="#mee75bf31d9" y="130.053118"/>
      </g>
     </g>
     <g id="text_6">
      <text style="font-family:Helvetica;font-size:13px;font-stretch:normal;font-style:normal;font-weight:normal;text-anchor:middle;" transform="rotate(-0, 310.124531, 146.378587)" x="310.124531" y="146.378587">100</text>
     </g>
    </g>
   </g>
   <g id="matplotlib.axis_2">
    <g id="ytick_1">
     <g id="line2d_7">
      <defs>
       <path d="M 0 0 
L -3.5 0 
" id="m58eb05a330" style="stroke:#000000;stroke-width:0.8;"/>
      </defs>
      <g>
       <use style="stroke:#000000;stroke-width:0.8;" x="31.124531" xlink:href="#m58eb05a330" y="130.053118"/>
      </g>
     </g>
     <g id="text_7">
      <text style="font-family:Helvetica;font-size:13px;font-stretch:normal;font-style:normal;font-weight:normal;text-anchor:end;" transform="rotate(-0, 24.124531, 134.715852)" x="24.124531" y="134.715852">0</text>
     </g>
    </g>
    <g id="ytick_2">
     <g id="line2d_8">
      <g>
       <use style="stroke:#000000;stroke-width:0.8;" x="31.124531" xlink:href="#m58eb05a330" y="88.838098"/>
      </g>
     </g>
     <g id="text_8">
      <text style="font-family:Helvetica;font-size:13px;font-stretch:normal;font-style:normal;font-weight:normal;text-anchor:end;" transform="rotate(-0, 24.124531, 93.500832)" x="24.124531" y="93.500832">2</text>
     </g>
    </g>
    <g id="ytick_3">
     <g id="line2d_9">
      <g>
       <use style="stroke:#000000;stroke-width:0.8;" x="31.124531" xlink:href="#m58eb05a330" y="47.623077"/>
      </g>
     </g>
     <g id="text_9">
      <text style="font-family:Helvetica;font-size:13px;font-stretch:normal;font-style:normal;font-weight:normal;text-anchor:end;" transform="rotate(-0, 24.124531, 52.285812)" x="24.124531" y="52.285812">4</text>
     </g>
    </g>
    <g id="text_10">
     <text style="font-family:Helvetica;font-size:13px;font-stretch:normal;font-style:normal;font-weight:normal;text-anchor:middle;" transform="rotate(-90, 10.108438, 68.280391)" x="10.108438" y="68.280391">Annotation latency [ms]</text>
    </g>
   </g>
   <g id="line2d_10">
    <path clip-path="url(#pb14c73c631)" d="M 31.124531 8.449983 
L 33.914531 24.153792 
L 36.704531 20.892612 
L 39.494531 32.383216 
L 42.284531 27.763754 
L 45.074531 23.712874 
L 47.864531 28.622015 
L 50.654531 32.247165 
L 53.444531 38.358301 
L 56.234531 19.253779 
L 59.024531 23.705867 
L 61.814531 20.757798 
L 64.604531 10.122715 
L 67.394531 24.630876 
L 70.184531 29.184188 
L 72.974531 38.699026 
L 75.764531 27.132566 
L 78.554531 38.210525 
L 81.344531 29.471622 
L 84.134531 12.870418 
L 86.924531 17.580923 
L 89.714531 26.951055 
L 92.504531 25.546138 
L 95.294531 36.471519 
L 98.084531 22.501379 
L 100.874531 20.459916 
L 103.664531 27.468221 
L 106.454531 29.827472 
L 109.244531 15.503707 
L 112.034531 29.898156 
L 114.824531 13.979637 
L 117.614531 29.924163 
L 120.404531 36.211061 
L 123.194531 29.905224 
L 125.984531 27.904111 
L 128.774531 29.410046 
L 131.564531 23.837013 
L 134.354531 24.78228 
L 137.144531 8.572495 
L 139.934531 10.674955 
L 142.724531 30.413199 
L 145.514531 35.878084 
L 148.304531 33.407594 
L 151.094531 27.653071 
L 153.884531 34.176357 
L 156.674531 22.933724 
L 159.464531 21.749184 
L 162.254531 18.204074 
L 165.044531 10.553185 
L 167.834531 40.800868 
L 170.624531 31.011971 
L 173.414531 25.986294 
L 176.204531 24.510508 
L 178.994531 25.614658 
L 181.784531 15.264207 
L 184.574531 15.689958 
L 187.364531 36.383504 
L 190.154531 31.291677 
L 192.944531 20.015639 
L 195.734531 24.862257 
L 198.524531 33.899145 
L 201.314531 32.408048 
L 204.104531 14.81587 
L 206.894531 17.82572 
L 209.684531 16.837137 
L 212.474531 48.332934 
L 215.264531 28.261899 
L 218.054531 17.225815 
L 220.844531 45.248567 
L 223.634531 36.352675 
L 226.424531 11.471229 
L 229.214531 12.026787 
L 232.004531 49.648146 
L 234.794531 31.388203 
L 237.584531 32.970117 
L 240.374531 29.206671 
L 243.164531 27.510673 
L 245.954531 30.350202 
L 248.744531 10.189236 
L 251.534531 21.209659 
L 254.324531 21.900093 
L 257.114531 36.985511 
L 259.904531 28.555803 
L 262.694531 35.855313 
L 265.484531 32.024995 
L 268.274531 32.826442 
L 271.064531 8.301918 
L 273.854531 9.916352 
L 276.644531 13.661396 
L 279.434531 20.851768 
L 282.224531 16.955321 
L 285.014531 31.238386 
L 287.804531 42.21782 
L 290.594531 35.21749 
L 293.384531 23.004305 
L 296.174531 18.692884 
L 298.964531 8.965233 
L 301.754531 6.507663 
L 304.544531 10.49396 
L 307.334531 19.337013 
" style="fill:none;stroke:#1f77b4;stroke-linecap:square;stroke-width:1.5;"/>
   </g>
   <g id="patch_3">
    <path d="M 31.124531 130.053118 
L 31.124531 6.507663 
" style="fill:none;stroke:#000000;stroke-linecap:square;stroke-linejoin:miter;stroke-width:0.8;"/>
   </g>
   <g id="patch_4">
    <path d="M 31.124531 130.053118 
L 310.124531 130.053118 
" style="fill:none;stroke:#000000;stroke-linecap:square;stroke-linejoin:miter;stroke-width:0.8;"/>
   </g>
  </g>
 </g>
 <defs>
  <clipPath id="pb14c73c631">
   <rect height="123.545455" width="279" x="31.124531" y="6.507663"/>
  </clipPath>
 </defs>
</svg>
