<?xml version="1.0" encoding="utf-8" standalone="no"?>
<!DOCTYPE svg PUBLIC "-//W3C//DTD SVG 1.1//EN"
  "http://www.w3.org/Graphics/SVG/1.1/DTD/svg11.dtd">
<!-- Created with matplotlib (https://matplotlib.org/) -->
<svg height="237.915156pt" version="1.1" viewBox="0 0 379.746641 237.915156" width="379.746641pt" xmlns="http://www.w3.org/2000/svg" xmlns:xlink="http://www.w3.org/1999/xlink">
 <metadata>
  <rdf:RDF xmlns:cc="http://creativecommons.org/ns#" xmlns:dc="http://purl.org/dc/elements/1.1/" xmlns:rdf="http://www.w3.org/1999/02/22-rdf-syntax-ns#">
   <cc:Work>
    <dc:type rdf:resource="http://purl.org/dc/dcmitype/StillImage"/>
    <dc:date>2020-10-28T15:56:37.248511</dc:date>
    <dc:format>image/svg+xml</dc:format>
    <dc:creator>
     <cc:Agent>
      <dc:title>Matplotlib v3.3.2, https://matplotlib.org/</dc:title>
     </cc:Agent>
    </dc:creator>
   </cc:Work>
  </rdf:RDF>
 </metadata>
 <defs>
  <style type="text/css">*{stroke-linecap:butt;stroke-linejoin:round;}</style>
 </defs>
 <g id="figure_1">
  <g id="patch_1">
   <path d="M 0 237.915156 
L 379.746641 237.915156 
L 379.746641 0 
L 0 0 
z
" style="fill:none;"/>
  </g>
  <g id="axes_1">
   <g id="patch_2">
    <path d="M 33.382812 99.556364 
L 368.182813 99.556364 
L 368.182813 0.72 
L 33.382812 0.72 
z
" style="fill:none;"/>
   </g>
   <g id="matplotlib.axis_1">
    <g id="xtick_1">
     <g id="line2d_1">
      <defs>
       <path d="M 0 0 
L 0 3.5 
" id="m50ac0a33d7" style="stroke:#000000;stroke-width:0.8;"/>
      </defs>
      <g>
       <use style="stroke:#000000;stroke-width:0.8;" x="33.382812" xlink:href="#m50ac0a33d7" y="99.556364"/>
      </g>
     </g>
     <g id="text_1">
      <text style="font-family:Helvetica;font-size:13px;font-stretch:normal;font-style:normal;font-weight:normal;text-anchor:middle;" transform="rotate(-0, 33.382812, 115.881832)" x="33.382812" y="115.881832">0</text>
     </g>
    </g>
    <g id="xtick_2">
     <g id="line2d_2">
      <g>
       <use style="stroke:#000000;stroke-width:0.8;" x="89.182813" xlink:href="#m50ac0a33d7" y="99.556364"/>
      </g>
     </g>
     <g id="text_2">
      <text style="font-family:Helvetica;font-size:13px;font-stretch:normal;font-style:normal;font-weight:normal;text-anchor:middle;" transform="rotate(-0, 89.182813, 115.881832)" x="89.182813" y="115.881832">50</text>
     </g>
    </g>
    <g id="xtick_3">
     <g id="line2d_3">
      <g>
       <use style="stroke:#000000;stroke-width:0.8;" x="144.982813" xlink:href="#m50ac0a33d7" y="99.556364"/>
      </g>
     </g>
     <g id="text_3">
      <text style="font-family:Helvetica;font-size:13px;font-stretch:normal;font-style:normal;font-weight:normal;text-anchor:middle;" transform="rotate(-0, 144.982813, 115.881832)" x="144.982813" y="115.881832">100</text>
     </g>
    </g>
    <g id="xtick_4">
     <g id="line2d_4">
      <g>
       <use style="stroke:#000000;stroke-width:0.8;" x="200.782813" xlink:href="#m50ac0a33d7" y="99.556364"/>
      </g>
     </g>
     <g id="text_4">
      <text style="font-family:Helvetica;font-size:13px;font-stretch:normal;font-style:normal;font-weight:normal;text-anchor:middle;" transform="rotate(-0, 200.782813, 115.881832)" x="200.782813" y="115.881832">150</text>
     </g>
    </g>
    <g id="xtick_5">
     <g id="line2d_5">
      <g>
       <use style="stroke:#000000;stroke-width:0.8;" x="256.582813" xlink:href="#m50ac0a33d7" y="99.556364"/>
      </g>
     </g>
     <g id="text_5">
      <text style="font-family:Helvetica;font-size:13px;font-stretch:normal;font-style:normal;font-weight:normal;text-anchor:middle;" transform="rotate(-0, 256.582813, 115.881832)" x="256.582813" y="115.881832">200</text>
     </g>
    </g>
    <g id="xtick_6">
     <g id="line2d_6">
      <g>
       <use style="stroke:#000000;stroke-width:0.8;" x="312.382812" xlink:href="#m50ac0a33d7" y="99.556364"/>
      </g>
     </g>
     <g id="text_6">
      <text style="font-family:Helvetica;font-size:13px;font-stretch:normal;font-style:normal;font-weight:normal;text-anchor:middle;" transform="rotate(-0, 312.382812, 115.881832)" x="312.382812" y="115.881832">250</text>
     </g>
    </g>
    <g id="xtick_7">
     <g id="line2d_7">
      <g>
       <use style="stroke:#000000;stroke-width:0.8;" x="368.182813" xlink:href="#m50ac0a33d7" y="99.556364"/>
      </g>
     </g>
     <g id="text_7">
      <text style="font-family:Helvetica;font-size:13px;font-stretch:normal;font-style:normal;font-weight:normal;text-anchor:middle;" transform="rotate(-0, 368.182813, 115.881832)" x="368.182813" y="115.881832">300</text>
     </g>
    </g>
   </g>
   <g id="matplotlib.axis_2">
    <g id="ytick_1">
     <g id="line2d_8">
      <defs>
       <path d="M 0 0 
L -3.5 0 
" id="mef093a7c02" style="stroke:#000000;stroke-width:0.8;"/>
      </defs>
      <g>
       <use style="stroke:#000000;stroke-width:0.8;" x="33.382812" xlink:href="#mef093a7c02" y="99.556364"/>
      </g>
     </g>
     <g id="text_8">
      <text style="font-family:Helvetica;font-size:13px;font-stretch:normal;font-style:normal;font-weight:normal;text-anchor:end;" transform="rotate(-0, 26.382812, 104.219098)" x="26.382812" y="104.219098">−0.1</text>
     </g>
    </g>
    <g id="ytick_2">
     <g id="line2d_9">
      <g>
       <use style="stroke:#000000;stroke-width:0.8;" x="33.382812" xlink:href="#mef093a7c02" y="33.665455"/>
      </g>
     </g>
     <g id="text_9">
      <text style="font-family:Helvetica;font-size:13px;font-stretch:normal;font-style:normal;font-weight:normal;text-anchor:end;" transform="rotate(-0, 26.382812, 38.328189)" x="26.382812" y="38.328189">0.0</text>
     </g>
    </g>
   </g>
   <g id="line2d_10">
    <path clip-path="url(#p4101013796)" d="M 33.382812 51.380875 
L 34.498812 50.486056 
L 35.614812 47.510026 
L 36.730812 46.283419 
L 37.846812 44.6647 
L 40.078812 40.6732 
L 41.194812 39.31589 
L 42.310812 38.933832 
L 43.426812 38.041525 
L 45.658813 40.592767 
L 46.774813 40.592767 
L 47.890813 39.31589 
L 49.006813 38.383367 
L 50.122813 39.527027 
L 51.238813 41.060285 
L 52.354813 41.904834 
L 53.470813 39.144969 
L 54.586813 38.808155 
L 55.702813 40.080005 
L 56.818813 39.909085 
L 57.934813 41.904834 
L 59.050813 42.291919 
L 60.166813 41.522777 
L 61.282813 39.868868 
L 62.398813 37.32014 
L 63.514813 36.259426 
L 65.746813 37.27741 
L 66.862813 36.980812 
L 67.978813 37.915848 
L 69.094813 37.958579 
L 70.210813 37.659468 
L 71.326813 38.426097 
L 73.558813 38.679964 
L 75.790813 40.844121 
L 76.906813 39.954328 
L 78.022813 40.165466 
L 79.138813 39.657731 
L 81.370812 37.744928 
L 83.602812 35.918842 
L 85.834812 34.729938 
L 86.950813 35.749178 
L 88.066812 37.830388 
L 89.182813 38.001309 
L 90.298812 36.938082 
L 92.530812 34.603004 
L 94.762812 35.282917 
L 95.878813 34.687836 
L 96.994813 34.603004 
L 98.110813 33.795923 
L 99.226813 34.09307 
L 100.342813 32.903852 
L 101.458813 32.054276 
L 103.690813 31.588015 
L 104.806813 32.989313 
L 105.922813 32.564525 
L 107.038813 31.672218 
L 108.154813 29.294411 
L 109.270813 28.658485 
L 110.386813 23.606273 
L 111.502813 16.382362 
L 112.618813 10.701765 
L 113.734813 6.35837 
L 114.850813 4.186673 
L 115.966813 5.29263 
L 117.082813 7.42411 
L 118.198813 10.40014 
L 120.430813 18.976334 
L 121.546813 25.516562 
L 122.662813 30.822642 
L 123.778813 35.197456 
L 126.010813 39.572271 
L 127.126813 43.56377 
L 128.242813 45.690224 
L 129.358812 47.298888 
L 130.474813 49.89286 
L 131.590813 50.78768 
L 132.706813 52.527049 
L 133.822812 55.020479 
L 134.938813 58.137267 
L 136.054813 61.998063 
L 137.170813 64.974093 
L 138.286812 67.306657 
L 139.402813 65.59745 
L 140.518813 62.118713 
L 142.750812 52.265641 
L 143.866813 45.388599 
L 146.098813 27.808909 
L 147.214812 17.317399 
L 148.330813 9.374616 
L 149.446813 5.332846 
L 151.678812 3.804615 
L 152.794813 5.976312 
L 153.910813 10.058299 
L 155.026813 15.105485 
L 156.142812 21.861877 
L 157.258813 26.320894 
L 158.374813 33.116561 
L 159.490813 37.619251 
L 160.606813 41.653481 
L 161.722813 44.111721 
L 162.838813 44.835621 
L 163.954813 45.861144 
L 165.070813 46.534773 
L 166.186813 45.73044 
L 167.302813 43.352633 
L 168.418813 41.3971 
L 169.534813 41.185962 
L 170.650813 40.165466 
L 171.766813 39.697947 
L 172.882812 40.6732 
L 173.998813 40.125249 
L 175.114812 38.637234 
L 176.230813 38.084256 
L 177.346813 36.344887 
L 178.462813 34.90023 
L 179.578813 32.606626 
L 180.694813 31.970073 
L 181.810813 30.908103 
L 182.926813 28.698702 
L 184.042813 26.91409 
L 185.158813 25.556779 
L 186.274813 27.215714 
L 187.390813 28.190967 
L 188.506813 29.847389 
L 189.622813 30.143987 
L 190.738813 29.719199 
L 191.854813 31.332891 
L 192.970813 31.927343 
L 194.086813 32.776919 
L 195.202813 33.243808 
L 196.318813 32.097006 
L 197.434813 30.526045 
L 198.550813 30.397854 
L 199.666813 31.332891 
L 200.782813 30.950833 
L 203.014813 31.800409 
L 204.130813 32.479693 
L 205.246813 33.880833 
L 206.362813 34.178216 
L 208.594813 32.394232 
L 210.826813 32.946582 
L 211.942813 33.328955 
L 213.058813 33.965822 
L 214.174813 34.90023 
L 215.290813 33.923406 
L 216.406813 31.841882 
L 217.522813 31.502554 
L 218.638813 31.629488 
L 219.754813 30.312394 
L 220.870813 29.591008 
L 221.986813 31.841882 
L 223.102813 32.097006 
L 224.218813 33.456202 
L 225.334813 32.776919 
L 226.450813 32.734188 
L 227.566813 32.097006 
L 228.682813 30.822642 
L 229.798813 28.869623 
L 230.914813 29.422601 
L 232.030813 29.804659 
L 233.146813 30.397854 
L 234.262813 32.225197 
L 235.378813 34.560274 
L 236.494813 34.220632 
L 237.610813 33.456202 
L 238.726813 31.884612 
L 240.958813 33.286224 
L 242.074813 33.923406 
L 244.306813 34.1358 
L 245.422813 36.216696 
L 246.538813 36.047032 
L 247.654813 35.36712 
L 248.770813 33.201392 
L 249.886813 34.305464 
L 251.002813 34.432712 
L 252.118813 35.154726 
L 253.234813 35.622244 
L 254.350813 36.598754 
L 255.466813 35.622244 
L 256.582813 31.332891 
L 257.698813 31.884612 
L 258.814813 35.961572 
L 259.930813 37.32014 
L 261.046812 38.466313 
L 262.162813 38.637234 
L 263.278813 38.297906 
L 264.394813 37.49106 
L 265.510813 37.873118 
L 266.626813 38.084256 
L 267.742813 37.32014 
L 268.858812 37.576521 
L 269.974812 36.470564 
L 271.090813 36.684215 
L 272.206813 38.933832 
L 273.322813 40.291143 
L 274.438813 41.060285 
L 275.554813 38.979075 
L 276.670813 38.169716 
L 277.786812 38.637234 
L 280.018813 36.769675 
L 281.134813 35.664975 
L 283.366813 32.81902 
L 284.482813 31.24743 
L 287.830813 30.654235 
L 288.946813 29.548278 
L 290.062813 27.849126 
L 291.178813 25.767916 
L 292.294813 25.642239 
L 293.410813 28.487565 
L 295.642813 31.079023 
L 296.758813 31.459824 
L 297.874813 32.436963 
L 298.990813 33.838417 
L 300.106813 34.09307 
L 301.222813 34.178216 
L 302.338813 32.861751 
L 303.454813 32.139737 
L 304.570813 30.822642 
L 305.686813 31.459824 
L 306.802813 32.989313 
L 307.918813 34.8575 
L 309.034813 35.706448 
L 310.150813 35.622244 
L 311.266813 34.729938 
L 312.382812 33.668557 
L 313.498813 35.111996 
L 314.614813 37.32014 
L 315.730813 38.255176 
L 316.846812 37.023542 
L 317.962813 37.958579 
L 317.962813 37.958579 
" style="fill:none;stroke:#1f77b4;stroke-linecap:square;stroke-width:1.5;"/>
   </g>
   <g id="patch_3">
    <path d="M 33.382812 99.556364 
L 33.382812 0.72 
" style="fill:none;stroke:#000000;stroke-linecap:square;stroke-linejoin:miter;stroke-width:0.8;"/>
   </g>
   <g id="patch_4">
    <path d="M 33.382812 99.556364 
L 368.182813 99.556364 
" style="fill:none;stroke:#000000;stroke-linecap:square;stroke-linejoin:miter;stroke-width:0.8;"/>
   </g>
  </g>
  <g id="axes_2">
   <g id="patch_5">
    <path d="M 33.382812 218.16 
L 368.182813 218.16 
L 368.182813 119.323636 
L 33.382812 119.323636 
z
" style="fill:none;"/>
   </g>
   <g id="matplotlib.axis_3">
    <g id="xtick_8">
     <g id="line2d_11">
      <g>
       <use style="stroke:#000000;stroke-width:0.8;" x="33.382812" xlink:href="#m50ac0a33d7" y="218.16"/>
      </g>
     </g>
     <g id="text_10">
      <text style="font-family:Helvetica;font-size:13px;font-stretch:normal;font-style:normal;font-weight:normal;text-anchor:middle;" transform="rotate(-0, 33.382812, 234.485469)" x="33.382812" y="234.485469">0</text>
     </g>
    </g>
    <g id="xtick_9">
     <g id="line2d_12">
      <g>
       <use style="stroke:#000000;stroke-width:0.8;" x="89.182813" xlink:href="#m50ac0a33d7" y="218.16"/>
      </g>
     </g>
     <g id="text_11">
      <text style="font-family:Helvetica;font-size:13px;font-stretch:normal;font-style:normal;font-weight:normal;text-anchor:middle;" transform="rotate(-0, 89.182813, 234.485469)" x="89.182813" y="234.485469">50</text>
     </g>
    </g>
    <g id="xtick_10">
     <g id="line2d_13">
      <g>
       <use style="stroke:#000000;stroke-width:0.8;" x="144.982813" xlink:href="#m50ac0a33d7" y="218.16"/>
      </g>
     </g>
     <g id="text_12">
      <text style="font-family:Helvetica;font-size:13px;font-stretch:normal;font-style:normal;font-weight:normal;text-anchor:middle;" transform="rotate(-0, 144.982813, 234.485469)" x="144.982813" y="234.485469">100</text>
     </g>
    </g>
    <g id="xtick_11">
     <g id="line2d_14">
      <g>
       <use style="stroke:#000000;stroke-width:0.8;" x="200.782813" xlink:href="#m50ac0a33d7" y="218.16"/>
      </g>
     </g>
     <g id="text_13">
      <text style="font-family:Helvetica;font-size:13px;font-stretch:normal;font-style:normal;font-weight:normal;text-anchor:middle;" transform="rotate(-0, 200.782813, 234.485469)" x="200.782813" y="234.485469">150</text>
     </g>
    </g>
    <g id="xtick_12">
     <g id="line2d_15">
      <g>
       <use style="stroke:#000000;stroke-width:0.8;" x="256.582813" xlink:href="#m50ac0a33d7" y="218.16"/>
      </g>
     </g>
     <g id="text_14">
      <text style="font-family:Helvetica;font-size:13px;font-stretch:normal;font-style:normal;font-weight:normal;text-anchor:middle;" transform="rotate(-0, 256.582813, 234.485469)" x="256.582813" y="234.485469">200</text>
     </g>
    </g>
    <g id="xtick_13">
     <g id="line2d_16">
      <g>
       <use style="stroke:#000000;stroke-width:0.8;" x="312.382812" xlink:href="#m50ac0a33d7" y="218.16"/>
      </g>
     </g>
     <g id="text_15">
      <text style="font-family:Helvetica;font-size:13px;font-stretch:normal;font-style:normal;font-weight:normal;text-anchor:middle;" transform="rotate(-0, 312.382812, 234.485469)" x="312.382812" y="234.485469">250</text>
     </g>
    </g>
    <g id="xtick_14">
     <g id="line2d_17">
      <g>
       <use style="stroke:#000000;stroke-width:0.8;" x="368.182813" xlink:href="#m50ac0a33d7" y="218.16"/>
      </g>
     </g>
     <g id="text_16">
      <text style="font-family:Helvetica;font-size:13px;font-stretch:normal;font-style:normal;font-weight:normal;text-anchor:middle;" transform="rotate(-0, 368.182813, 234.485469)" x="368.182813" y="234.485469">300</text>
     </g>
    </g>
   </g>
   <g id="matplotlib.axis_4">
    <g id="ytick_3">
     <g id="line2d_18">
      <g>
       <use style="stroke:#000000;stroke-width:0.8;" x="33.382812" xlink:href="#mef093a7c02" y="218.16"/>
      </g>
     </g>
     <g id="text_17">
      <text style="font-family:Helvetica;font-size:13px;font-stretch:normal;font-style:normal;font-weight:normal;text-anchor:end;" transform="rotate(-0, 26.382812, 222.822734)" x="26.382812" y="222.822734">0.0</text>
     </g>
    </g>
    <g id="ytick_4">
     <g id="line2d_19">
      <g>
       <use style="stroke:#000000;stroke-width:0.8;" x="33.382812" xlink:href="#mef093a7c02" y="168.741818"/>
      </g>
     </g>
     <g id="text_18">
      <text style="font-family:Helvetica;font-size:13px;font-stretch:normal;font-style:normal;font-weight:normal;text-anchor:end;" transform="rotate(-0, 26.382812, 173.404553)" x="26.382812" y="173.404553">0.5</text>
     </g>
    </g>
    <g id="ytick_5">
     <g id="line2d_20">
      <g>
       <use style="stroke:#000000;stroke-width:0.8;" x="33.382812" xlink:href="#mef093a7c02" y="119.323636"/>
      </g>
     </g>
     <g id="text_19">
      <text style="font-family:Helvetica;font-size:13px;font-stretch:normal;font-style:normal;font-weight:normal;text-anchor:end;" transform="rotate(-0, 26.382812, 123.986371)" x="26.382812" y="123.986371">1.0</text>
     </g>
    </g>
   </g>
   <g id="line2d_21">
    <path clip-path="url(#pd731924521)" d="M 33.382812 120.459995 
L 35.614812 120.486276 
L 36.730812 120.117375 
L 37.846812 120.024955 
L 38.962812 120.08092 
L 41.194812 120.719151 
L 43.426812 121.574451 
L 44.542812 121.873661 
L 45.658813 122.754899 
L 46.774813 122.274197 
L 47.890813 121.922327 
L 49.006813 121.037465 
L 50.122813 120.986548 
L 52.354813 120.194666 
L 54.586813 119.943988 
L 56.818813 120.076096 
L 59.050813 120.592846 
L 60.166813 120.913569 
L 61.282813 120.561334 
L 65.746813 119.953991 
L 70.210813 119.902096 
L 73.558813 119.936759 
L 76.906813 119.99213 
L 78.022813 119.955122 
L 80.254813 120.244175 
L 81.370812 120.662685 
L 82.486813 121.755391 
L 84.718813 123.401602 
L 85.834812 123.484625 
L 86.950813 123.689677 
L 88.066812 124.37463 
L 89.182813 123.934105 
L 92.530812 125.546259 
L 93.646813 126.275354 
L 94.762812 127.312124 
L 95.878813 126.874362 
L 96.994813 129.367018 
L 98.110813 132.566625 
L 99.226813 134.452157 
L 100.342813 135.234666 
L 101.458813 140.139171 
L 102.574813 141.906774 
L 103.690813 147.795766 
L 104.806813 149.158744 
L 105.922813 160.990082 
L 107.038813 174.293164 
L 108.154813 180.295695 
L 109.270813 175.889536 
L 110.386813 176.944312 
L 111.502813 179.565012 
L 112.618813 186.913348 
L 113.734813 198.458445 
L 114.850813 199.943287 
L 115.966813 199.199003 
L 117.082813 200.224349 
L 118.198813 197.863175 
L 119.314813 201.461584 
L 120.430813 202.500799 
L 121.546813 203.129795 
L 122.662813 202.414687 
L 123.778813 200.626757 
L 124.894813 198.105082 
L 126.010813 198.268936 
L 127.126813 197.924346 
L 128.242813 199.428216 
L 129.358812 204.240571 
L 130.474813 206.213683 
L 131.590813 206.963893 
L 132.706813 206.686976 
L 133.822812 206.554233 
L 134.938813 207.706333 
L 136.054813 207.964625 
L 137.170813 208.995456 
L 138.286812 209.505801 
L 139.402813 207.48379 
L 140.518813 208.154644 
L 141.634813 211.227596 
L 142.750812 209.169324 
L 143.866813 208.413647 
L 144.982813 206.304046 
L 146.098813 203.894191 
L 148.330813 203.573659 
L 149.446813 205.634987 
L 150.562813 208.079017 
L 151.678812 208.219815 
L 152.794813 209.621956 
L 153.910813 209.949944 
L 155.026813 206.429478 
L 156.142812 204.139009 
L 157.258813 206.293541 
L 158.374813 206.591985 
L 159.490813 205.927266 
L 160.606813 206.148147 
L 161.722813 204.726108 
L 162.838813 203.858073 
L 163.954813 201.801504 
L 165.070813 204.248587 
L 166.186813 205.784429 
L 167.302813 208.091654 
L 168.418813 207.603036 
L 169.534813 205.042322 
L 170.650813 203.432651 
L 171.766813 201.625676 
L 172.882812 198.397995 
L 175.114812 175.401131 
L 176.230813 166.819403 
L 177.346813 156.71063 
L 178.462813 151.985485 
L 179.578813 145.319975 
L 180.694813 140.616769 
L 181.810813 134.49016 
L 182.926813 131.487881 
L 184.042813 127.517211 
L 185.158813 124.639364 
L 186.274813 122.661078 
L 187.390813 121.889225 
L 189.622813 120.830522 
L 190.738813 120.176975 
L 191.854813 119.837924 
L 200.782813 119.504864 
L 204.130813 119.566179 
L 214.174813 119.36941 
L 221.986813 119.528258 
L 226.450813 119.704031 
L 229.798813 119.629685 
L 243.190813 119.463108 
L 266.626813 119.509377 
L 268.858812 119.567899 
L 271.090813 119.554568 
L 274.438813 119.769528 
L 275.554813 119.934361 
L 276.670813 120.3642 
L 277.786812 120.539048 
L 280.018813 120.241524 
L 283.366813 120.621441 
L 284.482813 120.508008 
L 285.598813 120.560757 
L 286.714812 120.47206 
L 290.062813 119.696402 
L 292.294813 119.515792 
L 295.642813 119.470331 
L 297.874813 119.592666 
L 298.990813 119.747154 
L 303.454813 121.156483 
L 304.570813 121.25143 
L 305.686813 121.078544 
L 307.918813 120.222613 
L 310.150813 120.017243 
L 311.266813 120.05993 
L 312.382812 120.247067 
L 317.962813 120.276694 
L 317.962813 120.276694 
" style="fill:none;stroke:#1f77b4;stroke-linecap:square;stroke-width:1.5;"/>
   </g>
   <g id="line2d_22">
    <path clip-path="url(#pd731924521)" d="M 33.382812 217.698802 
L 34.498812 217.829927 
L 35.614812 217.77127 
L 36.730812 217.934973 
L 40.078812 217.848506 
L 42.310812 217.510233 
L 43.426812 217.266965 
L 44.542812 217.369712 
L 50.122813 217.324712 
L 51.238813 217.388647 
L 52.354813 217.661071 
L 53.470813 217.808429 
L 56.818813 217.766999 
L 59.050813 217.589161 
L 60.166813 217.290493 
L 61.282813 217.578698 
L 67.978813 218.022087 
L 73.558813 218.00476 
L 81.370812 218.125007 
L 104.806813 217.885865 
L 108.154813 217.996656 
L 127.126813 218.131335 
L 171.766813 217.985443 
L 175.114812 217.966803 
L 180.694813 218.084664 
L 219.754813 218.085395 
L 226.450813 217.790731 
L 229.798813 217.863106 
L 244.306813 218.036927 
L 255.466813 218.020858 
L 258.814813 218.01612 
L 263.278813 218.077184 
L 273.322813 217.849325 
L 275.554813 217.566855 
L 276.670813 217.152295 
L 277.786812 216.990879 
L 280.018813 217.291246 
L 283.366813 216.908612 
L 284.482813 217.022228 
L 285.598813 216.974092 
L 286.714812 217.073193 
L 290.062813 217.821816 
L 292.294813 217.992645 
L 295.642813 218.027985 
L 297.874813 217.902154 
L 298.990813 217.75113 
L 303.454813 216.393071 
L 304.570813 216.29201 
L 305.686813 216.478876 
L 307.918813 217.332878 
L 311.266813 217.617494 
L 316.846812 217.453363 
L 317.962813 217.56009 
L 317.962813 217.56009 
" style="fill:none;stroke:#ff7f0e;stroke-linecap:square;stroke-width:1.5;"/>
   </g>
   <g id="line2d_23">
    <path clip-path="url(#pd731924521)" d="M 33.382812 217.48484 
L 34.498812 217.361448 
L 35.614812 217.3861 
L 36.730812 217.59128 
L 37.846812 217.680727 
L 38.962812 217.656469 
L 43.426812 216.802213 
L 44.542812 216.400265 
L 45.658813 215.535904 
L 46.774813 215.9317 
L 47.890813 216.464909 
L 49.006813 217.215062 
L 50.122813 217.332366 
L 51.238813 217.677078 
L 53.470813 217.820063 
L 55.702813 217.881188 
L 57.934813 217.646895 
L 59.050813 217.461617 
L 61.282813 217.503601 
L 65.746813 217.713181 
L 67.978813 217.691004 
L 78.022813 217.584158 
L 80.254813 217.272056 
L 81.370812 216.855948 
L 82.486813 215.778118 
L 84.718813 214.163498 
L 85.834812 214.111865 
L 86.950813 213.899414 
L 88.066812 213.217069 
L 89.182813 213.645709 
L 92.530812 212.056039 
L 93.646813 211.328147 
L 94.762812 210.298304 
L 95.878813 210.730966 
L 96.994813 208.271651 
L 98.110813 205.114632 
L 99.226813 203.258162 
L 100.342813 202.488647 
L 101.458813 197.626963 
L 102.574813 195.845853 
L 103.690813 189.99075 
L 104.806813 188.599032 
L 105.922813 176.707931 
L 107.038813 163.366054 
L 108.154813 157.351282 
L 109.270813 161.743549 
L 110.386813 160.670325 
L 111.502813 158.016977 
L 112.618813 150.653406 
L 113.734813 139.114408 
L 114.850813 137.630485 
L 115.966813 138.390373 
L 117.082813 137.344195 
L 118.198813 139.707112 
L 119.314813 136.105101 
L 120.430813 135.062558 
L 121.546813 134.417912 
L 122.662813 135.128609 
L 123.778813 136.908412 
L 124.894813 139.418141 
L 126.010813 139.247623 
L 127.126813 139.587958 
L 128.242813 138.085644 
L 129.358812 133.27529 
L 130.474813 131.30369 
L 131.590813 130.556886 
L 132.706813 130.843948 
L 133.822812 130.988805 
L 134.938813 129.836139 
L 136.054813 129.577072 
L 137.170813 128.549698 
L 138.286812 128.03402 
L 139.402813 130.054416 
L 140.518813 129.38108 
L 141.634813 126.303643 
L 142.750812 128.379916 
L 143.866813 129.140629 
L 144.982813 131.257639 
L 146.098813 133.676958 
L 148.330813 134.024769 
L 149.446813 131.967341 
L 150.562813 129.531763 
L 151.678812 129.411355 
L 152.794813 127.991622 
L 153.910813 127.594909 
L 155.026813 131.098762 
L 156.142812 133.374997 
L 157.258813 131.206363 
L 158.374813 130.904756 
L 159.490813 131.570581 
L 160.606813 131.353735 
L 161.722813 132.781203 
L 162.838813 133.667102 
L 163.954813 135.750651 
L 165.070813 133.310655 
L 166.186813 131.786337 
L 167.302813 129.465877 
L 168.418813 129.967764 
L 169.534813 132.551774 
L 171.766813 136.032516 
L 172.882812 139.300991 
L 175.114812 162.275699 
L 176.230813 170.812407 
L 177.346813 180.901883 
L 178.462813 185.594977 
L 179.578813 192.253256 
L 180.694813 196.942203 
L 181.810813 203.06733 
L 182.926813 206.060725 
L 184.042813 210.025149 
L 185.158813 212.881425 
L 186.274813 214.864432 
L 187.390813 215.644258 
L 189.622813 216.724118 
L 190.738813 217.362541 
L 191.854813 217.693453 
L 199.666813 218.054337 
L 206.362813 218.071397 
L 211.942813 218.145327 
L 234.262813 218.151267 
L 311.266813 217.96621 
L 312.382812 217.813565 
L 315.730813 217.816068 
L 317.962813 217.806845 
L 317.962813 217.806845 
" style="fill:none;stroke:#2ca02c;stroke-linecap:square;stroke-width:1.5;"/>
   </g>
   <g id="patch_6">
    <path d="M 33.382812 218.16 
L 33.382812 119.323636 
" style="fill:none;stroke:#000000;stroke-linecap:square;stroke-linejoin:miter;stroke-width:0.8;"/>
   </g>
   <g id="patch_7">
    <path d="M 33.382812 218.16 
L 368.182813 218.16 
" style="fill:none;stroke:#000000;stroke-linecap:square;stroke-linejoin:miter;stroke-width:0.8;"/>
   </g>
   <g id="legend_1">
    <g id="line2d_24">
     <path d="M 289.006719 135.799105 
L 315.006719 135.799105 
" style="fill:none;stroke:#1f77b4;stroke-linecap:square;stroke-width:1.5;"/>
    </g>
    <g id="line2d_25"/>
    <g id="text_20">
     <text style="font-family:Helvetica;font-size:13px;font-stretch:normal;font-style:normal;font-weight:normal;text-anchor:start;" transform="rotate(-0, 325.406719, 140.349105)" x="325.406719" y="140.349105">noise</text>
    </g>
    <g id="line2d_26">
     <path d="M 289.006719 154.334261 
L 315.006719 154.334261 
" style="fill:none;stroke:#ff7f0e;stroke-linecap:square;stroke-width:1.5;"/>
    </g>
    <g id="line2d_27"/>
    <g id="text_21">
     <text style="font-family:Helvetica;font-size:13px;font-stretch:normal;font-style:normal;font-weight:normal;text-anchor:start;" transform="rotate(-0, 325.406719, 158.884261)" x="325.406719" y="158.884261">sine</text>
    </g>
    <g id="line2d_28">
     <path d="M 289.006719 172.869418 
L 315.006719 172.869418 
" style="fill:none;stroke:#2ca02c;stroke-linecap:square;stroke-width:1.5;"/>
    </g>
    <g id="line2d_29"/>
    <g id="text_22">
     <text style="font-family:Helvetica;font-size:13px;font-stretch:normal;font-style:normal;font-weight:normal;text-anchor:start;" transform="rotate(-0, 325.406719, 177.419418)" x="325.406719" y="177.419418">pulse</text>
    </g>
   </g>
  </g>
 </g>
 <defs>
  <clipPath id="p4101013796">
   <rect height="98.836364" width="334.8" x="33.382812" y="0.72"/>
  </clipPath>
  <clipPath id="pd731924521">
   <rect height="98.836364" width="334.8" x="33.382812" y="119.323636"/>
  </clipPath>
 </defs>
</svg>
